<svg id="sedan-car-icon" xmlns="http://www.w3.org/2000/svg" width="30" height="10.399" viewBox="0 0 30 10.399">
  <path id="Path_122" data-name="Path 122" d="M0,6.81c.083-.461.315-.747.774-.764A1.936,1.936,0,0,1,1.035,4.82,1.737,1.737,0,0,1,1.411,4.4,3.6,3.6,0,0,1,3.2,3.8c.635-.115,1.272-.212,1.907-.288.769-.09,1.538-.151,2.3-.173.356-.01.271.01.552-.208A24.8,24.8,0,0,1,12.433.43,5.1,5.1,0,0,1,14.515,0h4.956a5.387,5.387,0,0,1,2.808.728L25.285,3.04l3.006.2a1.112,1.112,0,0,1,1.262.859V6.126c.85.217.3,2.175-.085,2.605-.337.378-.64.334-1.091.334H25.7c.515-3.872-3.433-4.7-5.059-2.591a3.33,3.33,0,0,0-.4,2.761H8.082C8.7,6.368,6.851,5.2,5.147,5.367c-2.193.215-2.769,1.973-2.393,3.9H.857C.315,9.3.063,8.863,0,8.133V6.81Zm22.926-.767a2.178,2.178,0,1,1-2.178,2.178,2.177,2.177,0,0,1,2.178-2.178ZM5.694,7.181v.784h.784a1.074,1.074,0,0,0-.784-.784Zm.784,1.3H5.694v.784a1.074,1.074,0,0,0,.784-.784Zm-1.3.784V8.477H4.4a1.074,1.074,0,0,0,.784.784ZM4.4,7.964h.784V7.181a1.074,1.074,0,0,0-.784.784Zm18.786-.784v.784h.784a1.074,1.074,0,0,0-.784-.784Zm.784,1.3h-.784v.784a1.074,1.074,0,0,0,.784-.784Zm-1.3.784V8.477h-.784a1.074,1.074,0,0,0,.784.784Zm-.784-1.3h.784V7.181a1.074,1.074,0,0,0-.784.784ZM5.437,6.043A2.178,2.178,0,1,1,3.26,8.221,2.177,2.177,0,0,1,5.437,6.043ZM21.2,3.865l.41-2.412,1.441,1.814-.271.308-.256.291ZM9.4,2.9v.938h6.072L15.909.574H14.244a4.412,4.412,0,0,0-2.146.654c-.774.41-1.482.864-2.236,1.355-.154.1-.313.21-.466.317ZM16.866.537l-.491,3.3h4.368L21.176.886A14.5,14.5,0,0,0,16.866.537Z" fill="#3a3a3e" fill-rule="evenodd"/>
</svg>
