<svg id="XMLID_834_" xmlns="http://www.w3.org/2000/svg" width="12.292" height="24.333" viewBox="0 0 12.292 24.333">
  <path id="XMLID_835_" d="M17.713,12.96H20.38V23.941a.392.392,0,0,0,.392.392h4.523a.392.392,0,0,0,.392-.392V13.012h3.066a.393.393,0,0,0,.39-.348l.466-4.043a.392.392,0,0,0-.39-.437H25.687V5.65c0-.764.411-1.151,1.223-1.151h2.309a.392.392,0,0,0,.392-.392V.4A.392.392,0,0,0,29.219,0H26.037c-.022,0-.072,0-.146,0A6.1,6.1,0,0,0,21.9,1.5a4.182,4.182,0,0,0-1.391,3.717V8.184h-2.8a.392.392,0,0,0-.392.392v3.991A.392.392,0,0,0,17.713,12.96Z" transform="translate(-17.32)" fill="#f3f3f3"/>
</svg>
