<svg xmlns="http://www.w3.org/2000/svg" width="13.573" height="13.573" viewBox="0 0 13.573 13.573">
  <path id="Path_99" data-name="Path 99" d="M11.419,10.258a9.284,9.284,0,0,0,.339,1.953l-.9.9a11.179,11.179,0,0,1-.573-2.858h1.139m7.435,9.064a9.616,9.616,0,0,0,1.961.339v1.124a11.632,11.632,0,0,1-2.865-.566l.9-.9M12.143,8.75H9.5A.756.756,0,0,0,8.75,9.5,12.818,12.818,0,0,0,21.569,22.323a.756.756,0,0,0,.754-.754V18.937a.756.756,0,0,0-.754-.754,8.6,8.6,0,0,1-2.692-.43.633.633,0,0,0-.234-.038.772.772,0,0,0-.535.219l-1.659,1.659a11.423,11.423,0,0,1-4.969-4.969l1.659-1.659a.757.757,0,0,0,.189-.769A8.566,8.566,0,0,1,12.9,9.5.756.756,0,0,0,12.143,8.75Z" transform="translate(-8.75 -8.75)" fill="#fff"/>
</svg>
